# xmcd
#
# Track frame offsets:
#	150
#	13007
#	24048
#	37411
#	49698
#	64256
#	79289
#	90347
#	105221
#	119694
#	133456
#	150456
#	164261
#	174917
#	189593
#	200849
#
# Disc length: 2831 seconds
#
# Revision: 0
# Processed by: cddbd v1.5.2PL0 Copyright (c) Steve Scherf et al.
# Submitted via: dBpowerAMP V4.0
#
DISCID=d30b0d10
DTITLE=Roy Orbison - Candy Man (live)
DYEAR=2001
DGENRE=Blues
TTITLE0=Workin' For The Man
TTITLE1=Lana
TTITLE2=Crying
TTITLE3=Dream Baby (How Long Must I Dream)
TTITLE4=Candy Man
TTITLE5=Blue Angel
TTITLE6=Mean Woman Blues
TTITLE7=Penny Arcade
TTITLE8=In Dreams
TTITLE9=Blue Bayou
TTITLE10=Oh Pretty Woman
TTITLE11=Leah
TTITLE12=Running Scared
TTITLE13=Too Soon To Know
TTITLE14=Ooby Dooby
TTITLE15=It's Over
EXTD=
EXTT0=
EXTT1=
EXTT2=
EXTT3=
EXTT4=
EXTT5=
EXTT6=
EXTT7=
EXTT8=
EXTT9=
EXTT10=
EXTT11=
EXTT12=
EXTT13=
EXTT14=
EXTT15=
PLAYORDER=
